# xmcd
#
# Track frame offsets:
#	150
#	18607
#	35569
#	50504
#	68377
#	83505
#	101234
#	114774
#	132312
#	146873
#	161246
#	178885
#	194837
#	210509
#	223481
#	237535
#	255110
#	269195
#	288772
#	302471
#	319788
#	332683
#
# Disc length: 4662 seconds
#
# Revision: 1
# Processed by: cddbd v1.5.2PL0 Copyright (c) Steve Scherf et al.
# Submitted via: audiograbber 1.83.01
#
DISCID=52123416
DTITLE=Various Artist - ERG NCT 159
DYEAR=2007
DGENRE=Country
TTITLE0=Tangled Up - Billy Currington
TTITLE1=So Small - Carrie Underwood
TTITLE2=Heaven, Heartache And The Power Of Love - Trisha Yearwood
TTITLE3=Take Me There - Rascal Flatts
TTITLE4=What Do You See - Doc Walker
TTITLE5=Way Back Texas - Pat Green
TTITLE6=What Kinda Gone - Chris Cagle
TTITLE7=That's When I Feel Loved - Charlie Major
TTITLE8=Blue Collar Man - Duane Steele
TTITLE9=You Can't Beat An Original - Brad Johner
TTITLE10=Still Lovers Now - Jimmy Rankin
TTITLE11=Testify - Emerson Drive
TTITLE12=Break - J.R. Vautour
TTITLE13=Riding Around The Sun - Michelle Wright
TTITLE14=Biker Chick - Jo Dee Messina
TTITLE15=Til I Was A Daddy Too - Tracy Lawrence
TTITLE16=Love Is Fine - Chris Cummings
TTITLE17=Dealin' - Carolina Rain
TTITLE18=In Front Of The Alamo - Hal Ketchum ft. LeAnn Rimes
TTITLE19=Mighty Mighty Love - Ty Herndon
TTITLE20=That's My Memory - Rio Grand
TTITLE21=Country Girl - Rissi Palmer
EXTD=
EXTT0=
EXTT1=
EXTT2=
EXTT3=
EXTT4=
EXTT5=
EXTT6=
EXTT7=
EXTT8=
EXTT9=
EXTT10=
EXTT11=
EXTT12=
EXTT13=
EXTT14=
EXTT15=
EXTT16=
EXTT17=
EXTT18=
EXTT19=
EXTT20=
EXTT21=
PLAYORDER=
